<?xml version="1.0" encoding="UTF-8" standalone="no"?>
<!DOCTYPE svg PUBLIC "-//W3C//DTD SVG 1.1//EN" "http://www.w3.org/Graphics/SVG/1.1/DTD/svg11.dtd">
<svg width="100%" height="100%" viewBox="0 0 561 561" version="1.1" xmlns="http://www.w3.org/2000/svg" xmlns:xlink="http://www.w3.org/1999/xlink" xml:space="preserve" xmlns:serif="http://www.serif.com/" style="fill-rule:evenodd;clip-rule:evenodd;stroke-linejoin:round;stroke-miterlimit:2;">
    <g id="Artboard1" transform="matrix(1,0,0,1,-69.9954,-0.006)">
        <rect x="69.995" y="0.006" width="560.004" height="560.011" style="fill:none;"/>
        <clipPath id="_clip1">
            <rect x="69.995" y="0.006" width="560.004" height="560.011"/>
        </clipPath>
        <g clip-path="url(#_clip1)">
            <g transform="matrix(1,0,0,1,0.995434,0.006)">
                <path d="M618.8,245.44C624.995,245.44 629.999,240.421 629.999,234.241L629.999,42.151C629.999,18.913 611.104,0.006 587.854,0.006L112.144,0.006C88.906,0.006 69.999,18.912 69.999,42.151L69.999,280.011C69.999,286.195 75.018,291.21 81.198,291.21L206.921,291.21C208.242,291.21 209.519,290.898 210.753,290.437C211.078,290.312 211.39,290.19 211.695,290.034C212.738,289.542 213.71,288.901 214.562,288.097C214.652,288.007 214.773,287.952 214.855,287.862C215.605,287.101 216.265,286.226 216.793,285.241L279.859,165.861L422.979,396.771C423.182,397.095 423.459,397.342 423.686,397.635C423.896,397.916 424.088,398.181 424.334,398.431C425.229,399.404 426.228,400.213 427.369,400.795C427.412,400.83 427.447,400.873 427.494,400.896C427.596,400.939 427.705,400.92 427.795,400.963C429.264,401.658 430.83,402.072 432.467,402.072C432.479,402.072 432.479,402.084 432.49,402.084L432.514,402.084C433.701,402.084 434.889,401.838 436.029,401.435C436.834,401.178 437.643,400.853 438.369,400.404C438.369,400.404 438.381,400.392 438.393,400.392C438.428,400.369 438.436,400.338 438.471,400.314C439.545,399.642 440.451,398.736 441.26,397.705C441.494,397.412 441.686,397.111 441.889,396.799C442.092,396.498 442.35,396.228 442.525,395.892L494.865,291.212L607.595,291.212L607.595,517.872C607.595,528.759 598.736,537.618 587.849,537.618L112.139,537.618C101.252,537.618 92.393,528.759 92.393,517.872L92.393,325.792C92.393,319.597 87.374,314.593 81.194,314.593C75.011,314.593 69.995,319.601 69.995,325.792L69.995,517.872C69.995,541.122 88.901,560.017 112.14,560.017L587.86,560.017C611.102,560.017 629.997,541.122 629.997,517.872L629.997,280.012C629.997,273.829 624.99,268.813 618.798,268.813L487.938,268.813C487.368,268.813 486.884,269.048 486.337,269.138C485.552,269.251 484.759,269.329 484.009,269.606C483.313,269.864 482.755,270.29 482.126,270.669C481.52,271.04 480.915,271.364 480.392,271.833C479.786,272.38 479.372,273.063 478.903,273.735C478.602,274.184 478.177,274.497 477.919,275.001L431.462,367.927L288.612,137.447C288.479,137.236 288.264,137.134 288.131,136.931C287.694,136.314 287.159,135.822 286.596,135.295C286.049,134.779 285.51,134.287 284.881,133.896C284.67,133.763 284.545,133.56 284.323,133.435C283.897,133.213 283.448,133.213 283.014,133.045C282.288,132.775 281.592,132.529 280.831,132.408C280.112,132.295 279.432,132.295 278.713,132.33C278.006,132.353 277.315,132.396 276.62,132.552C275.858,132.732 275.174,133.021 274.467,133.349C274.053,133.541 273.592,133.572 273.19,133.818C272.979,133.951 272.866,134.166 272.674,134.299C272.057,134.736 271.565,135.271 271.038,135.834C270.522,136.381 270.018,136.92 269.639,137.549C269.506,137.759 269.303,137.884 269.178,138.095L200.143,268.815L92.393,268.815L92.393,42.155C92.393,31.268 101.253,22.409 112.139,22.409L587.859,22.409C598.738,22.409 607.597,31.269 607.597,42.155L607.597,234.245C607.597,240.429 612.601,245.448 618.796,245.448L618.8,245.44Z" style="fill:rgb(241,217,0);fill-rule:nonzero;"/>
            </g>
        </g>
    </g>
</svg>
