<?xml version="1.0" encoding="UTF-8" standalone="no"?>
<!DOCTYPE svg PUBLIC "-//W3C//DTD SVG 1.1//EN" "http://www.w3.org/Graphics/SVG/1.1/DTD/svg11.dtd">
<svg width="100%" height="100%" viewBox="0 0 790 89" version="1.1" xmlns="http://www.w3.org/2000/svg" xmlns:xlink="http://www.w3.org/1999/xlink" xml:space="preserve" xmlns:serif="http://www.serif.com/" style="fill-rule:evenodd;clip-rule:evenodd;stroke-linejoin:round;stroke-miterlimit:2;">
    <g id="Elektron_Logo_Black">
        <path d="M475,0L469.5,25.8L458.2,25.8L456.1,35.8L467.4,35.8L456.2,88.4L488.2,88.4L499.4,35.8L513.7,35.8L515.8,25.8L501.5,25.8L506.9,0L475,0Z" style="fill:rgb(241,217,0);fill-rule:nonzero;"/>
        <path d="M236.7,0L218,88.4L250,88.4L268.7,0L236.7,0Z" style="fill:rgb(241,217,0);fill-rule:nonzero;"/>
        <path d="M367.1,0L348.3,88.4L380.3,88.4L399,0L367.1,0Z" style="fill:rgb(241,217,0);fill-rule:nonzero;"/>
        <path d="M172.6,35.7L187.4,35.7L182.4,59.5L167.5,59.5L172.6,35.7ZM142.8,25.8L129.5,88.4L208,88.4L210.1,78.5L163.5,78.5L165.4,69.5L212.1,69.5L221.3,25.8L142.8,25.8Z" style="fill:rgb(241,217,0);fill-rule:nonzero;"/>
        <path d="M303,35.8L317.9,35.8L312.9,59.6L298,59.6L303,35.8ZM273.1,25.8L259.8,88.4L338.3,88.4L340.4,78.5L293.8,78.5L295.7,69.5L342.3,69.5L351.6,25.8L273.1,25.8Z" style="fill:rgb(241,217,0);fill-rule:nonzero;"/>
        <path d="M706.8,25.8L693.5,88.4L725.5,88.4L736.7,35.8L755.7,35.8L744.5,88.4L776.3,88.4L789.6,25.8L706.8,25.8Z" style="fill:rgb(241,217,0);fill-rule:nonzero;"/>
        <path d="M645.7,35.8L663.1,35.8L654.1,78.6L636.6,78.6L645.7,35.8ZM615.8,25.8L602.5,88.4L683.8,88.4L697.1,25.8L615.8,25.8Z" style="fill:rgb(241,217,0);fill-rule:nonzero;"/>
        <path d="M525.4,25.8L512.2,88.4L544.1,88.4L555.3,35.8L572.6,35.8L570.3,46.9L601.8,46.9L606.2,25.8L525.4,25.8Z" style="fill:rgb(241,217,0);fill-rule:nonzero;"/>
        <path d="M398.5,25.8L414.3,88.4L446.3,88.4L432.9,35.8L446.4,35.8L448.5,25.8L398.5,25.8Z" style="fill:rgb(241,217,0);fill-rule:nonzero;"/>
        <path d="M26.6,9.9L12,78.5L97.3,78.5L101.3,59.6L60.4,59.6L111.9,9.9L26.6,9.9ZM0,88.4L18.8,0L123.9,0L105.2,88.4L0,88.4Z" style="fill:rgb(241,217,0);fill-rule:nonzero;"/>
    </g>
</svg>
