<?xml version="1.0" encoding="UTF-8" standalone="no"?>
<!DOCTYPE svg PUBLIC "-//W3C//DTD SVG 1.1//EN" "http://www.w3.org/Graphics/SVG/1.1/DTD/svg11.dtd">
<svg width="100%" height="100%" viewBox="0 0 618 446" version="1.1" xmlns="http://www.w3.org/2000/svg" xmlns:xlink="http://www.w3.org/1999/xlink" xml:space="preserve" xmlns:serif="http://www.serif.com/" style="fill-rule:evenodd;clip-rule:evenodd;stroke-linejoin:round;stroke-miterlimit:2;">
    <g id="Artboard1" transform="matrix(1,0,0,1,-41.4738,-102.619)">
        <rect x="41.474" y="102.619" width="617.052" height="445.673" style="fill:none;"/>
        <g transform="matrix(1,0,0,1,0.473841,0.618703)">
            <g>
                <g transform="matrix(2.8628,0,0,2.8628,-651.97,-476.125)">
                    <path d="M276.62,342.31L246.503,342.31C244.151,342.31 242.226,344.228 242.226,346.587L242.226,353.556C242.226,355.912 244.152,357.837 246.503,357.837L276.62,357.837C278.972,357.837 280.897,355.912 280.897,353.556L280.897,346.587C280.897,344.228 278.972,342.31 276.62,342.31Z" style="fill:rgb(241,217,0);fill-rule:nonzero;"/>
                </g>
                <g transform="matrix(2.8628,0,0,2.8628,-651.97,-476.125)">
                    <path d="M320.84,342.31L290.723,342.31C288.371,342.31 286.446,344.228 286.446,346.587L286.446,353.556C286.446,355.912 288.371,357.837 290.723,357.837L320.84,357.837C323.192,357.837 325.117,355.912 325.117,353.556L325.117,346.587C325.117,344.228 323.192,342.31 320.84,342.31Z" style="fill:rgb(241,217,0);fill-rule:nonzero;"/>
                </g>
                <g transform="matrix(2.8628,0,0,2.8628,-651.97,-476.125)">
                    <path d="M365.05,342.31L334.937,342.31C332.585,342.31 330.66,344.228 330.66,346.587L330.66,353.556C330.66,355.912 332.585,357.837 334.937,357.837L365.05,357.837C367.406,357.837 369.331,355.912 369.331,353.556L369.331,346.587C369.331,344.228 367.405,342.31 365.05,342.31Z" style="fill:rgb(241,217,0);fill-rule:nonzero;"/>
                </g>
                <g transform="matrix(2.8628,0,0,2.8628,-651.97,-476.125)">
                    <path d="M409.28,342.31L379.167,342.31C376.815,342.31 374.89,344.228 374.89,346.587L374.89,353.556C374.89,355.912 376.815,357.837 379.167,357.837L409.28,357.837C411.632,357.837 413.557,355.912 413.557,353.556L413.557,346.587C413.553,344.228 411.624,342.31 409.28,342.31Z" style="fill:rgb(241,217,0);fill-rule:nonzero;"/>
                </g>
                <g transform="matrix(2.8628,0,0,2.8628,-651.97,-476.125)">
                    <path d="M453.49,342.31L423.377,342.31C421.022,342.31 419.096,344.228 419.096,346.587L419.096,353.556C419.096,355.912 421.022,357.837 423.377,357.837L453.49,357.837C455.842,357.837 457.767,355.912 457.767,353.556L457.767,346.587C457.767,344.228 455.842,342.31 453.49,342.31Z" style="fill:rgb(241,217,0);fill-rule:nonzero;"/>
                </g>
                <g transform="matrix(2.8628,0,0,2.8628,-651.97,-476.125)">
                    <path d="M276.62,322.29L246.503,322.29C244.151,322.29 242.226,324.22 242.226,326.567L242.226,333.54C242.226,335.888 244.152,337.817 246.503,337.817L276.62,337.817C278.972,337.817 280.897,335.888 280.897,333.54L280.897,326.567C280.897,324.22 278.972,322.29 276.62,322.29Z" style="fill:rgb(241,217,0);fill-rule:nonzero;"/>
                </g>
                <g transform="matrix(2.8628,0,0,2.8628,-651.97,-476.125)">
                    <path d="M320.84,322.29L290.723,322.29C288.371,322.29 286.446,324.22 286.446,326.567L286.446,333.54C286.446,335.888 288.371,337.817 290.723,337.817L320.84,337.817C323.192,337.817 325.117,335.888 325.117,333.54L325.117,326.567C325.117,324.22 323.192,322.29 320.84,322.29Z" style="fill:rgb(241,217,0);fill-rule:nonzero;"/>
                </g>
                <g transform="matrix(2.8628,0,0,2.8628,-651.97,-476.125)">
                    <path d="M365.05,322.29L334.937,322.29C332.585,322.29 330.66,324.22 330.66,326.567L330.66,333.54C330.66,335.888 332.585,337.817 334.937,337.817L365.05,337.817C367.406,337.817 369.331,335.888 369.331,333.54L369.331,326.567C369.331,324.22 367.405,322.29 365.05,322.29Z" style="fill:rgb(241,217,0);fill-rule:nonzero;"/>
                </g>
                <g transform="matrix(2.8628,0,0,2.8628,-651.97,-476.125)">
                    <path d="M409.28,322.29L379.167,322.29C376.815,322.29 374.89,324.22 374.89,326.567L374.89,333.54C374.89,335.888 376.815,337.817 379.167,337.817L409.28,337.817C411.632,337.817 413.557,335.888 413.557,333.54L413.557,326.567C413.553,324.22 411.624,322.29 409.28,322.29Z" style="fill:rgb(241,217,0);fill-rule:nonzero;"/>
                </g>
                <g transform="matrix(2.8628,0,0,2.8628,-651.97,-476.125)">
                    <path d="M453.49,322.29L423.377,322.29C421.022,322.29 419.096,324.22 419.096,326.567L419.096,333.54C419.096,335.888 421.022,337.817 423.377,337.817L453.49,337.817C455.842,337.817 457.767,335.888 457.767,333.54L457.767,326.567C457.767,324.22 455.842,322.29 453.49,322.29Z" style="fill:rgb(241,217,0);fill-rule:nonzero;"/>
                </g>
                <g transform="matrix(2.8628,0,0,2.8628,-651.97,-476.125)">
                    <path d="M276.62,302.27L246.503,302.27C244.151,302.27 242.226,304.188 242.226,306.547L242.226,313.516C242.226,315.872 244.152,317.797 246.503,317.797L276.62,317.797C278.972,317.797 280.897,315.872 280.897,313.516L280.897,306.547C280.897,304.188 278.972,302.27 276.62,302.27Z" style="fill:rgb(241,217,0);fill-rule:nonzero;"/>
                </g>
                <g transform="matrix(2.8628,0,0,2.8628,-651.97,-476.125)">
                    <path d="M320.84,302.27L290.723,302.27C288.371,302.27 286.446,304.188 286.446,306.547L286.446,313.516C286.446,315.872 288.371,317.797 290.723,317.797L320.84,317.797C323.192,317.797 325.117,315.872 325.117,313.516L325.117,306.547C325.117,304.188 323.192,302.27 320.84,302.27Z" style="fill:rgb(241,217,0);fill-rule:nonzero;"/>
                </g>
                <g transform="matrix(2.8628,0,0,2.8628,-651.97,-476.125)">
                    <path d="M365.05,302.27L334.937,302.27C332.585,302.27 330.66,304.188 330.66,306.547L330.66,313.516C330.66,315.872 332.585,317.797 334.937,317.797L365.05,317.797C367.406,317.797 369.331,315.872 369.331,313.516L369.331,306.547C369.331,304.188 367.405,302.27 365.05,302.27Z" style="fill:rgb(241,217,0);fill-rule:nonzero;"/>
                </g>
                <g transform="matrix(2.8628,0,0,2.8628,-651.97,-476.125)">
                    <path d="M409.28,302.27L379.167,302.27C376.815,302.27 374.89,304.188 374.89,306.547L374.89,313.516C374.89,315.872 376.815,317.797 379.167,317.797L409.28,317.797C411.632,317.797 413.557,315.872 413.557,313.516L413.557,306.547C413.553,304.188 411.624,302.27 409.28,302.27Z" style="fill:rgb(241,217,0);fill-rule:nonzero;"/>
                </g>
                <g transform="matrix(2.8628,0,0,2.8628,-651.97,-476.125)">
                    <path d="M276.62,282.25L246.503,282.25C244.151,282.25 242.226,284.176 242.226,286.527L242.226,293.5C242.226,295.848 244.152,297.77 246.503,297.77L276.62,297.77C278.972,297.77 280.897,295.844 280.897,293.5L280.897,286.527C280.897,284.172 278.972,282.25 276.62,282.25Z" style="fill:rgb(241,217,0);fill-rule:nonzero;"/>
                </g>
                <g transform="matrix(2.8628,0,0,2.8628,-651.97,-476.125)">
                    <path d="M320.84,282.25L290.723,282.25C288.371,282.25 286.446,284.176 286.446,286.527L286.446,293.5C286.446,295.848 288.371,297.77 290.723,297.77L320.84,297.77C323.192,297.77 325.117,295.844 325.117,293.5L325.117,286.527C325.117,284.172 323.192,282.25 320.84,282.25Z" style="fill:rgb(241,217,0);fill-rule:nonzero;"/>
                </g>
                <g transform="matrix(2.8628,0,0,2.8628,-651.97,-476.125)">
                    <path d="M409.28,282.25L379.167,282.25C376.815,282.25 374.89,284.176 374.89,286.527L374.89,293.5C374.89,295.848 376.815,297.77 379.167,297.77L409.28,297.77C411.632,297.77 413.557,295.844 413.557,293.5L413.557,286.527C413.553,284.172 411.624,282.25 409.28,282.25Z" style="fill:rgb(241,217,0);fill-rule:nonzero;"/>
                </g>
                <g transform="matrix(2.8628,0,0,2.8628,-651.97,-476.125)">
                    <path d="M276.62,262.23L246.503,262.23C244.151,262.23 242.226,264.148 242.226,266.5L242.226,273.472C242.226,275.824 244.152,277.75 246.503,277.75L276.62,277.75C278.972,277.75 280.897,275.824 280.897,273.472L280.897,266.5C280.897,264.152 278.972,262.23 276.62,262.23Z" style="fill:rgb(241,217,0);fill-rule:nonzero;"/>
                </g>
                <g transform="matrix(2.8628,0,0,2.8628,-651.97,-476.125)">
                    <path d="M320.84,262.23L290.723,262.23C288.371,262.23 286.446,264.148 286.446,266.5L286.446,273.472C286.446,275.824 288.371,277.75 290.723,277.75L320.84,277.75C323.192,277.75 325.117,275.824 325.117,273.472L325.117,266.5C325.117,264.152 323.192,262.23 320.84,262.23Z" style="fill:rgb(241,217,0);fill-rule:nonzero;"/>
                </g>
                <g transform="matrix(2.8628,0,0,2.8628,-651.97,-476.125)">
                    <path d="M409.28,262.23L379.167,262.23C376.815,262.23 374.89,264.148 374.89,266.5L374.89,273.472C374.89,275.824 376.815,277.75 379.167,277.75L409.28,277.75C411.632,277.75 413.557,275.824 413.557,273.472L413.557,266.5C413.553,264.152 411.624,262.23 409.28,262.23Z" style="fill:rgb(241,217,0);fill-rule:nonzero;"/>
                </g>
                <g transform="matrix(2.8628,0,0,2.8628,-651.97,-476.125)">
                    <path d="M320.84,242.21L290.723,242.21C288.371,242.21 286.446,244.136 286.446,246.487L286.446,253.46C286.446,255.808 288.371,257.73 290.723,257.73L320.84,257.73C323.192,257.73 325.117,255.804 325.117,253.46L325.117,246.487C325.117,244.132 323.192,242.21 320.84,242.21Z" style="fill:rgb(241,217,0);fill-rule:nonzero;"/>
                </g>
                <g transform="matrix(2.8628,0,0,2.8628,-651.97,-476.125)">
                    <path d="M409.28,242.21L379.167,242.21C376.815,242.21 374.89,244.136 374.89,246.487L374.89,253.46C374.89,255.808 376.815,257.73 379.167,257.73L409.28,257.73C411.632,257.73 413.557,255.804 413.557,253.46L413.557,246.487C413.553,244.132 411.624,242.21 409.28,242.21Z" style="fill:rgb(241,217,0);fill-rule:nonzero;"/>
                </g>
                <g transform="matrix(2.8628,0,0,2.8628,-651.97,-476.125)">
                    <path d="M320.84,222.18L290.723,222.18C288.371,222.18 286.446,224.106 286.446,226.457L286.446,233.43C286.446,235.782 288.371,237.707 290.723,237.707L320.84,237.707C323.192,237.707 325.117,235.782 325.117,233.43L325.117,226.457C325.117,224.102 323.192,222.18 320.84,222.18Z" style="fill:rgb(241,217,0);fill-rule:nonzero;"/>
                </g>
                <g transform="matrix(2.8628,0,0,2.8628,-651.97,-476.125)">
                    <path d="M409.28,222.18L379.167,222.18C376.815,222.18 374.89,224.106 374.89,226.457L374.89,233.43C374.89,235.782 376.815,237.707 379.167,237.707L409.28,237.707C411.632,237.707 413.557,235.782 413.557,233.43L413.557,226.457C413.553,224.102 411.624,222.18 409.28,222.18Z" style="fill:rgb(241,217,0);fill-rule:nonzero;"/>
                </g>
                <g transform="matrix(2.8628,0,0,2.8628,-651.97,-476.125)">
                    <path d="M320.84,202.16L290.723,202.16C288.371,202.16 286.446,204.086 286.446,206.437L286.446,213.41C286.446,215.762 288.371,217.687 290.723,217.687L320.84,217.687C323.192,217.687 325.117,215.761 325.117,213.41L325.117,206.437C325.117,204.086 323.192,202.16 320.84,202.16Z" style="fill:rgb(241,217,0);fill-rule:nonzero;"/>
                </g>
            </g>
        </g>
    </g>
</svg>
