<?xml version="1.0" encoding="UTF-8" standalone="no"?>
<!DOCTYPE svg PUBLIC "-//W3C//DTD SVG 1.1//EN" "http://www.w3.org/Graphics/SVG/1.1/DTD/svg11.dtd">
<svg width="100%" height="100%" viewBox="0 0 560 560" version="1.1" xmlns="http://www.w3.org/2000/svg" xmlns:xlink="http://www.w3.org/1999/xlink" xml:space="preserve" xmlns:serif="http://www.serif.com/" style="fill-rule:evenodd;clip-rule:evenodd;stroke-linejoin:round;stroke-miterlimit:2;">
    <g id="Artboard1" transform="matrix(1,0,0,1,-70.002,0)">
        <rect x="70.002" y="0" width="559.992" height="559.938" style="fill:none;"/>
        <g transform="matrix(1,0,0,1,0.002,0)">
            <g>
                <path d="M333.77,0L366.161,0C412.852,3.594 450.395,16.336 483.701,33.32C430.248,89.086 375.641,143.68 319.881,197.13C303.256,175.591 285.084,158.31 245.842,161.966C207.494,165.54 178.596,199.986 178.28,237.857C177.76,300.017 249.042,335.443 301.37,300.795C315.116,291.693 327.733,276.279 340.241,263.772C377.526,226.483 415.108,188.323 452.221,150.852C482.858,178.442 512.174,209.887 542.92,240.629C546.135,243.844 555.826,251.359 555.877,252.656C555.994,255.472 535.881,273.59 533.662,275.797C511.064,298.395 488.139,321.5 465.174,342.438C449.24,308.938 394.811,297.055 359.674,318.376C338.205,331.403 324.471,352.314 323.576,381.31C322.338,421.208 350.764,455.904 390.217,459.974C444.912,465.626 467.131,426.548 493.877,399.818C538.912,354.783 585.682,307.838 629.927,265.628C631.654,357.425 599.782,423.628 554.954,470.168C510.059,516.77 450.354,554.055 366.154,559.938L333.763,559.938C255.236,553.043 194.723,521.79 151.443,478.497C108.162,435.208 76.861,374.737 70.002,296.177L70.002,263.782C74.549,188.075 110.221,123.212 152.373,81.452C197.021,37.218 256.643,6.104 333.773,0.007L333.77,0Z" style="fill:rgb(241,217,0);"/>
            </g>
        </g>
    </g>
</svg>
